<svg xmlns="http://www.w3.org/2000/svg" xmlns:xlink="http://www.w3.org/1999/xlink" width="500" zoomAndPan="magnify" viewBox="0 0 375 374.999991" height="500" preserveAspectRatio="xMidYMid meet" version="1.0"><defs><g/><clipPath id="f8ec103c1f"><path d="M 107 180 L 276.378906 180 L 276.378906 189 L 107 189 Z M 107 180 " clip-rule="nonzero"/></clipPath><clipPath id="71ba6dd03b"><path d="M 184 81.863281 L 201 81.863281 L 201 98 L 184 98 Z M 184 81.863281 " clip-rule="nonzero"/></clipPath><clipPath id="63bf15a56e"><path d="M 98.628906 199 L 139 199 L 139 261.863281 L 98.628906 261.863281 Z M 98.628906 199 " clip-rule="nonzero"/></clipPath></defs><rect x="-37.5" width="450" fill="#ffffff" y="-37.499999" height="449.999989" fill-opacity="1"/><rect x="-37.5" width="450" fill="#ffffff" y="-37.499999" height="449.999989" fill-opacity="1"/><rect x="-37.5" width="450" fill="#8b634b" y="-37.499999" height="449.999989" fill-opacity="1"/><g fill="#1c2933" fill-opacity="1"><g transform="translate(86.96829, 302.886542)"><g><path d="M 25.835938 -20.246094 L 23.675781 -21.519531 L 23.675781 -36.070312 C 23.675781 -37.339844 23.789062 -38.722656 22.625 -38.78125 C 21.796875 -38.890625 20.910156 -38.890625 19.96875 -38.890625 C 17.261719 -38.890625 17.148438 -38.78125 17.148438 -36.070312 C 17.148438 -36.289062 17.148438 -32.308594 17.09375 -24.0625 C 17.09375 -22.238281 17.148438 -22.074219 16.816406 -21.023438 C 16.707031 -20.359375 15.875 -20.246094 15.601562 -20.910156 C 15.488281 -21.132812 15.378906 -21.410156 15.269531 -21.742188 C 14.714844 -23.730469 12.667969 -30.535156 11.78125 -33.46875 C 11.671875 -33.964844 11.453125 -34.6875 11.175781 -35.570312 C 10.84375 -36.566406 10.621094 -37.285156 10.511719 -37.671875 C 10.289062 -38.449219 9.792969 -38.835938 9.128906 -38.835938 L 3.871094 -38.835938 C 2.601562 -38.78125 2.710938 -37.453125 2.710938 -35.738281 L 2.710938 -21.519531 L 0.496094 -20.246094 C 0.222656 -20.027344 0.0546875 -19.804688 0.0546875 -19.417969 C 0.0546875 -19.085938 0.222656 -18.863281 0.496094 -18.644531 L 2.710938 -17.371094 L 2.710938 -3.375 C 2.710938 -1.605469 2.488281 -0.222656 4.203125 0 L 6.140625 0 C 9.238281 0 9.292969 0 9.292969 -2.988281 L 9.292969 -14.992188 C 9.292969 -16.152344 9.347656 -16.929688 9.515625 -17.371094 C 9.792969 -18.035156 10.511719 -18.199219 10.84375 -17.535156 L 11.507812 -15.710938 C 11.394531 -15.988281 12.777344 -11.78125 15.601562 -2.988281 L 15.875 -2.210938 C 16.042969 -1.824219 16.097656 -1.550781 16.152344 -1.328125 C 16.707031 0.386719 19.25 0 20.578125 0 C 23.511719 0 23.675781 -0.109375 23.675781 -3.042969 L 23.675781 -17.371094 L 25.835938 -18.644531 C 26.167969 -18.863281 26.332031 -19.085938 26.332031 -19.417969 C 26.332031 -19.804688 26.167969 -20.027344 25.835938 -20.246094 Z M 25.835938 -20.246094 "/></g></g></g><g fill="#1c2933" fill-opacity="1"><g transform="translate(119.382221, 302.886542)"><g><path d="M 24.007812 -20.136719 L 21.796875 -21.410156 L 21.796875 -28.765625 C 21.796875 -31.699219 21.078125 -34.851562 18.753906 -37.007812 C 16.429688 -39.222656 13.664062 -39.832031 9.292969 -39.167969 C 8.574219 -39.054688 7.964844 -38.78125 7.300781 -38.28125 C 4.09375 -35.957031 2.542969 -33.191406 2.65625 -29.929688 C 2.65625 -28.378906 2.710938 -25.445312 2.65625 -21.410156 L 0.441406 -20.136719 C 0.109375 -19.914062 0 -19.695312 0 -19.308594 C 0 -18.976562 0.109375 -18.753906 0.441406 -18.53125 L 2.65625 -17.261719 L 2.65625 -9.183594 C 2.65625 -7.414062 2.933594 -5.972656 3.597656 -4.757812 C 7.136719 1.882812 16.320312 2.324219 20.691406 -4.703125 C 20.964844 -5.199219 21.1875 -5.644531 21.242188 -6.140625 C 21.683594 -8.410156 21.851562 -9.847656 21.851562 -10.457031 L 21.796875 -17.261719 L 24.007812 -18.53125 C 24.339844 -18.753906 24.453125 -18.976562 24.453125 -19.308594 C 24.453125 -19.695312 24.339844 -19.96875 24.007812 -20.136719 Z M 14.550781 -8.1875 C 13.554688 -5.972656 10.34375 -6.03125 9.460938 -8.296875 C 9.238281 -8.742188 9.183594 -9.570312 9.183594 -10.675781 L 9.183594 -28.710938 C 9.183594 -29.597656 9.183594 -30.148438 9.238281 -30.480469 C 9.625 -33.300781 13.71875 -33.632812 14.605469 -30.925781 C 14.769531 -30.371094 14.882812 -29.761719 14.882812 -28.988281 L 14.882812 -10.289062 C 14.882812 -9.40625 14.769531 -8.683594 14.550781 -8.1875 Z M 14.550781 -8.1875 "/></g></g></g><g fill="#1c2933" fill-opacity="1"><g transform="translate(149.915534, 302.886542)"><g/></g></g><g fill="#1c2933" fill-opacity="1"><g transform="translate(166.841968, 302.886542)"><g><path d="M 25.835938 -20.246094 L 23.675781 -21.519531 L 23.675781 -36.070312 C 23.675781 -37.339844 23.789062 -38.722656 22.625 -38.78125 C 21.796875 -38.890625 20.910156 -38.890625 19.96875 -38.890625 C 17.261719 -38.890625 17.148438 -38.78125 17.148438 -36.070312 C 17.148438 -36.289062 17.148438 -32.308594 17.09375 -24.0625 C 17.09375 -22.238281 17.148438 -22.074219 16.816406 -21.023438 C 16.707031 -20.359375 15.875 -20.246094 15.601562 -20.910156 C 15.488281 -21.132812 15.378906 -21.410156 15.269531 -21.742188 C 14.714844 -23.730469 12.667969 -30.535156 11.78125 -33.46875 C 11.671875 -33.964844 11.453125 -34.6875 11.175781 -35.570312 C 10.84375 -36.566406 10.621094 -37.285156 10.511719 -37.671875 C 10.289062 -38.449219 9.792969 -38.835938 9.128906 -38.835938 L 3.871094 -38.835938 C 2.601562 -38.78125 2.710938 -37.453125 2.710938 -35.738281 L 2.710938 -21.519531 L 0.496094 -20.246094 C 0.222656 -20.027344 0.0546875 -19.804688 0.0546875 -19.417969 C 0.0546875 -19.085938 0.222656 -18.863281 0.496094 -18.644531 L 2.710938 -17.371094 L 2.710938 -3.375 C 2.710938 -1.605469 2.488281 -0.222656 4.203125 0 L 6.140625 0 C 9.238281 0 9.292969 0 9.292969 -2.988281 L 9.292969 -14.992188 C 9.292969 -16.152344 9.347656 -16.929688 9.515625 -17.371094 C 9.792969 -18.035156 10.511719 -18.199219 10.84375 -17.535156 L 11.507812 -15.710938 C 11.394531 -15.988281 12.777344 -11.78125 15.601562 -2.988281 L 15.875 -2.210938 C 16.042969 -1.824219 16.097656 -1.550781 16.152344 -1.328125 C 16.707031 0.386719 19.25 0 20.578125 0 C 23.511719 0 23.675781 -0.109375 23.675781 -3.042969 L 23.675781 -17.371094 L 25.835938 -18.644531 C 26.167969 -18.863281 26.332031 -19.085938 26.332031 -19.417969 C 26.332031 -19.804688 26.167969 -20.027344 25.835938 -20.246094 Z M 25.835938 -20.246094 "/></g></g></g><g fill="#1c2933" fill-opacity="1"><g transform="translate(199.255903, 302.886542)"><g><path d="M 22.183594 -3.320312 C 22.128906 -3.761719 21.296875 -8.464844 19.804688 -17.480469 L 21.683594 -18.585938 C 21.960938 -18.753906 22.128906 -18.976562 22.128906 -19.363281 C 22.128906 -19.695312 21.960938 -19.96875 21.683594 -20.136719 L 19.085938 -21.628906 C 19.03125 -22.074219 18.199219 -26.941406 16.652344 -36.125 C 16.484375 -37.007812 16.265625 -38.003906 15.875 -38.390625 C 15.65625 -38.558594 15.214844 -38.667969 14.660156 -38.722656 L 9.625 -38.722656 C 7.855469 -38.722656 7.414062 -38.390625 7.082031 -36.566406 C 6.582031 -33.523438 5.753906 -28.546875 4.535156 -21.683594 L 1.882812 -20.136719 C 1.550781 -19.96875 1.382812 -19.695312 1.382812 -19.363281 C 1.382812 -18.976562 1.550781 -18.753906 1.882812 -18.585938 L 3.816406 -17.425781 C 3.816406 -17.371094 3.761719 -17.203125 3.761719 -17.039062 C 3.429688 -15.101562 2.65625 -10.398438 1.328125 -2.875 C 1.105469 -1.273438 0.71875 -0.109375 2.269531 -0.0546875 C 3.429688 0 4.867188 0 6.582031 -0.0546875 C 7.359375 -0.0546875 7.800781 -0.441406 7.964844 -1.273438 C 8.410156 -3.816406 8.683594 -5.3125 8.742188 -5.753906 C 9.074219 -8.574219 9.515625 -8.683594 12.390625 -8.683594 C 12.390625 -8.683594 12.558594 -8.683594 12.835938 -8.628906 C 14.769531 -8.574219 14.882812 -5.917969 14.9375 -5.367188 C 15.046875 -4.921875 15.101562 -4.257812 15.214844 -3.429688 C 15.433594 -1.660156 15.488281 -0.828125 15.988281 -0.386719 C 16.207031 -0.164062 16.539062 -0.0546875 17.09375 0 C 17.535156 0 21.464844 0.164062 21.960938 -0.332031 C 22.40625 -0.71875 22.460938 -1.714844 22.183594 -3.320312 Z M 13.5 -15.488281 C 13.386719 -14.769531 10.289062 -14.714844 10.289062 -15.542969 C 10.289062 -15.710938 10.289062 -15.988281 10.34375 -16.265625 C 10.511719 -18.585938 10.84375 -20.300781 11.230469 -21.355469 C 11.453125 -21.742188 12.058594 -21.960938 12.390625 -21.355469 C 12.558594 -21.023438 12.667969 -20.746094 12.722656 -20.523438 C 12.722656 -20.359375 13.332031 -17.425781 13.441406 -16.429688 C 13.5 -15.933594 13.5 -15.601562 13.5 -15.488281 Z M 13.5 -15.488281 "/></g></g></g><g fill="#1c2933" fill-opacity="1"><g transform="translate(226.747024, 302.886542)"><g><path d="M 32.308594 -20.027344 L 30.09375 -21.296875 L 30.09375 -35.625 C 30.09375 -37.230469 30.316406 -38.558594 28.820312 -38.613281 C 27.105469 -38.667969 25.003906 -38.667969 22.515625 -38.613281 C 20.855469 -38.613281 21.023438 -37.453125 20.578125 -34.960938 C 20.359375 -33.964844 20.246094 -33.191406 20.136719 -32.582031 C 19.75 -30.8125 19.308594 -28.378906 18.753906 -25.445312 L 17.425781 -18.253906 C 17.425781 -18.035156 17.371094 -17.921875 17.316406 -17.8125 C 16.929688 -16.929688 16.152344 -17.039062 15.933594 -17.703125 C 15.710938 -18.367188 15.542969 -18.863281 15.488281 -19.140625 L 12.613281 -33.691406 L 11.839844 -37.507812 C 11.671875 -38.226562 11.230469 -38.613281 10.621094 -38.613281 L 3.871094 -38.613281 C 2.488281 -38.558594 2.65625 -37.175781 2.65625 -35.570312 L 2.65625 -21.296875 L 0.441406 -20.027344 C 0.164062 -19.859375 0 -19.582031 0 -19.25 C 0 -18.863281 0.164062 -18.644531 0.441406 -18.476562 L 2.65625 -17.203125 L 2.65625 -3.097656 C 2.65625 -1.273438 2.488281 -0.109375 3.816406 0.0546875 C 5.199219 0.164062 6.582031 0.164062 7.910156 0.0546875 C 9.292969 -0.164062 9.183594 -1.492188 9.183594 -3.042969 L 9.183594 -12.445312 C 9.183594 -13.386719 9.292969 -14.050781 9.460938 -14.382812 C 9.515625 -14.605469 10.066406 -14.824219 10.289062 -14.382812 C 10.566406 -13.773438 10.730469 -13.332031 10.84375 -13 C 11.175781 -11.5625 11.671875 -9.570312 12.226562 -7.027344 C 12.445312 -6.25 13.277344 -2.765625 13.609375 -1.328125 C 13.828125 -0.277344 14.160156 0 15.269531 0.0546875 C 16.816406 0.164062 18.53125 0.109375 18.976562 -0.277344 C 19.195312 -0.496094 19.417969 -0.941406 19.582031 -1.550781 C 19.804688 -2.542969 20.136719 -3.925781 20.523438 -5.808594 L 21.683594 -11.5625 C 21.851562 -12.390625 22.074219 -12.945312 22.292969 -13.222656 C 22.40625 -13.332031 22.515625 -13.386719 22.679688 -13.386719 C 22.847656 -13.386719 22.957031 -13.332031 23.011719 -13.167969 C 23.34375 -12.335938 23.566406 -11.285156 23.566406 -9.957031 L 23.566406 -2.765625 C 23.566406 -1.382812 23.457031 -0.109375 24.5625 0 C 26.054688 0.164062 27.492188 0.164062 28.933594 0 C 30.203125 -0.164062 30.09375 -1.605469 30.09375 -3.152344 L 30.09375 -17.203125 L 32.308594 -18.476562 C 32.582031 -18.644531 32.75 -18.863281 32.75 -19.25 C 32.75 -19.582031 32.582031 -19.859375 32.308594 -20.027344 Z M 32.308594 -20.027344 "/></g></g></g><g fill="#1c2933" fill-opacity="1"><g transform="translate(265.521904, 302.886542)"><g><path d="M 20.027344 -5.367188 C 19.859375 -6.636719 18.753906 -6.472656 17.09375 -6.527344 L 11.671875 -6.527344 C 9.847656 -6.582031 9.347656 -7.136719 9.238281 -8.90625 C 9.183594 -10.621094 9.183594 -12.113281 9.292969 -13.441406 C 9.40625 -15.820312 9.957031 -16.097656 12.058594 -16.097656 C 13.664062 -16.097656 14.9375 -16.097656 15.765625 -16.152344 C 16.539062 -16.207031 16.984375 -16.597656 16.984375 -17.371094 C 17.09375 -18.53125 17.09375 -19.695312 17.039062 -20.855469 C 16.984375 -22.183594 16.652344 -22.570312 15.324219 -22.570312 C 14.9375 -22.625 14.273438 -22.625 13.386719 -22.625 C 11.671875 -22.625 10.457031 -22.570312 9.792969 -23.179688 C 9.515625 -23.511719 9.292969 -24.0625 9.292969 -24.785156 C 9.183594 -26.554688 9.183594 -28.378906 9.238281 -30.261719 C 9.347656 -31.976562 9.847656 -32.527344 11.671875 -32.582031 L 17.148438 -32.582031 C 18.753906 -32.582031 19.914062 -32.472656 20.027344 -33.800781 C 20.136719 -35.074219 20.191406 -37.839844 19.695312 -38.335938 C 19.417969 -38.558594 18.699219 -38.722656 17.425781 -38.722656 L 5.476562 -38.722656 C 2.765625 -38.722656 2.710938 -38.613281 2.710938 -35.847656 L 2.710938 -21.410156 L 0.496094 -20.136719 C 0.222656 -19.96875 0.0546875 -19.695312 0.0546875 -19.363281 C 0.0546875 -18.976562 0.222656 -18.753906 0.496094 -18.585938 L 2.710938 -17.316406 L 2.710938 -3.652344 C 2.710938 -1.605469 2.65625 -0.886719 3.152344 -0.441406 C 3.652344 0 4.589844 0 5.367188 0 L 17.371094 0 C 18.53125 0 19.859375 0.109375 19.96875 -1.21875 C 20.136719 -2.542969 20.136719 -3.925781 20.027344 -5.367188 Z M 20.027344 -5.367188 "/></g></g></g><g clip-path="url(#f8ec103c1f)"><path fill="#1c2933" d="M 276.382812 188.21875 L 107.800781 188.21875 L 107.800781 180.785156 L 276.382812 180.785156 L 276.382812 188.21875 " fill-opacity="1" fill-rule="nonzero"/></g><g clip-path="url(#71ba6dd03b)"><path fill="#1c2933" d="M 200.078125 89.519531 C 200.078125 93.746094 196.664062 97.167969 192.445312 97.167969 C 188.234375 97.167969 184.820312 93.746094 184.820312 89.519531 C 184.820312 85.300781 188.234375 81.878906 192.445312 81.878906 C 196.664062 81.878906 200.078125 85.300781 200.078125 89.519531 " fill-opacity="1" fill-rule="nonzero"/></g><path fill="#1c2933" d="M 142.835938 164.886719 L 129.230469 164.886719 C 129.230469 106.347656 175.910156 100.777344 192.453125 100.777344 C 148.398438 100.777344 142.835938 164.886719 142.835938 164.886719 Z M 192.089844 96.957031 C 109.859375 96.957031 122.226562 173.765625 122.226562 173.765625 L 262.78125 173.765625 C 262.78125 173.765625 274.320312 96.957031 192.089844 96.957031 " fill-opacity="1" fill-rule="nonzero"/><g clip-path="url(#63bf15a56e)"><path fill="#1c2933" d="M 103.574219 204.222656 L 103.574219 255.613281 L 133.253906 248.710938 L 133.253906 204.222656 Z M 98.628906 261.851562 L 98.628906 199.265625 L 138.199219 199.265625 L 138.199219 252.644531 L 98.628906 261.851562 " fill-opacity="1" fill-rule="nonzero"/></g><path fill="#1c2933" d="M 142.527344 201.742188 C 142.527344 201.742188 179.933594 184.503906 218.882812 201.742188 L 216.652344 205.273438 C 214.382812 208.863281 210.441406 211.035156 206.203125 211.035156 L 182.714844 211.035156 C 182.714844 211.035156 170.851562 215.371094 184.820312 215.371094 C 198.789062 215.371094 222.898438 215.371094 222.898438 215.371094 C 222.898438 215.371094 251.34375 195.007812 265.5625 204.726562 L 220.738281 237.050781 L 142.527344 243.554688 L 142.527344 201.742188 " fill-opacity="1" fill-rule="nonzero"/></svg>