<svg xmlns="http://www.w3.org/2000/svg" xmlns:xlink="http://www.w3.org/1999/xlink" width="500" zoomAndPan="magnify" viewBox="0 0 375 374.999991" height="500" preserveAspectRatio="xMidYMid meet" version="1.0"><defs><g/><clipPath id="cc741bb6ef"><path d="M 80 147 L 306.5625 147 L 306.5625 158 L 80 158 Z M 80 147 " clip-rule="nonzero"/></clipPath><clipPath id="2aac5b9ef0"><path d="M 183 14.503906 L 205 14.503906 L 205 36 L 183 36 Z M 183 14.503906 " clip-rule="nonzero"/></clipPath><clipPath id="e85668244a"><path d="M 68.0625 172 L 122 172 L 122 256 L 68.0625 256 Z M 68.0625 172 " clip-rule="nonzero"/></clipPath></defs><rect x="-37.5" width="450" fill="#ffffff" y="-37.499999" height="449.999989" fill-opacity="1"/><rect x="-37.5" width="450" fill="#ffffff" y="-37.499999" height="449.999989" fill-opacity="1"/><rect x="-37.5" width="450" fill="#8b634b" y="-37.499999" height="449.999989" fill-opacity="1"/><g fill="#1c2933" fill-opacity="1"><g transform="translate(41.532793, 331.904774)"><g><path d="M 37.507812 -29.394531 L 34.375 -31.242188 L 34.375 -52.367188 C 34.375 -54.214844 34.535156 -56.222656 32.851562 -56.300781 C 31.644531 -56.464844 30.359375 -56.464844 28.996094 -56.464844 C 25.058594 -56.464844 24.898438 -56.300781 24.898438 -52.367188 C 24.898438 -52.6875 24.898438 -46.90625 24.816406 -34.9375 C 24.816406 -32.289062 24.898438 -32.046875 24.417969 -30.519531 C 24.257812 -29.558594 23.050781 -29.394531 22.648438 -30.359375 C 22.488281 -30.679688 22.328125 -31.082031 22.167969 -31.566406 C 21.363281 -34.457031 18.394531 -44.335938 17.109375 -48.59375 C 16.945312 -49.316406 16.625 -50.359375 16.222656 -51.644531 C 15.742188 -53.089844 15.421875 -54.132812 15.261719 -54.695312 C 14.9375 -55.820312 14.214844 -56.382812 13.253906 -56.382812 L 5.621094 -56.382812 C 3.773438 -56.300781 3.9375 -54.375 3.9375 -51.886719 L 3.9375 -31.242188 L 0.722656 -29.394531 C 0.320312 -29.074219 0.0820312 -28.753906 0.0820312 -28.191406 C 0.0820312 -27.710938 0.320312 -27.386719 0.722656 -27.066406 L 3.9375 -25.21875 L 3.9375 -4.898438 C 3.9375 -2.328125 3.613281 -0.320312 6.105469 0 L 8.914062 0 C 13.414062 0 13.492188 0 13.492188 -4.335938 L 13.492188 -21.765625 C 13.492188 -23.453125 13.574219 -24.578125 13.816406 -25.21875 C 14.214844 -26.183594 15.261719 -26.425781 15.742188 -25.460938 L 16.707031 -22.808594 C 16.546875 -23.210938 18.554688 -17.109375 22.648438 -4.335938 L 23.050781 -3.210938 C 23.292969 -2.652344 23.371094 -2.25 23.453125 -1.925781 C 24.257812 0.5625 27.949219 0 29.878906 0 C 34.136719 0 34.375 -0.160156 34.375 -4.417969 L 34.375 -25.21875 L 37.507812 -27.066406 C 37.988281 -27.386719 38.230469 -27.710938 38.230469 -28.191406 C 38.230469 -28.753906 37.988281 -29.074219 37.507812 -29.394531 Z M 37.507812 -29.394531 "/></g></g></g><g fill="#1c2933" fill-opacity="1"><g transform="translate(88.594581, 331.904774)"><g><path d="M 34.859375 -29.234375 L 31.644531 -31.082031 L 31.644531 -41.765625 C 31.644531 -46.023438 30.601562 -50.601562 27.226562 -53.730469 C 23.855469 -56.945312 19.839844 -57.828125 13.492188 -56.863281 C 12.449219 -56.703125 11.566406 -56.300781 10.601562 -55.578125 C 5.945312 -52.207031 3.695312 -48.191406 3.855469 -43.453125 C 3.855469 -41.203125 3.9375 -36.945312 3.855469 -31.082031 L 0.640625 -29.234375 C 0.160156 -28.914062 0 -28.59375 0 -28.03125 C 0 -27.550781 0.160156 -27.226562 0.640625 -26.90625 L 3.855469 -25.058594 L 3.855469 -13.332031 C 3.855469 -10.761719 4.257812 -8.675781 5.21875 -6.90625 C 10.359375 2.730469 23.695312 3.375 30.039062 -6.828125 C 30.441406 -7.550781 30.761719 -8.191406 30.84375 -8.914062 C 31.484375 -12.207031 31.726562 -14.296875 31.726562 -15.179688 L 31.644531 -25.058594 L 34.859375 -26.90625 C 35.339844 -27.226562 35.5 -27.550781 35.5 -28.03125 C 35.5 -28.59375 35.339844 -28.996094 34.859375 -29.234375 Z M 21.125 -11.886719 C 19.679688 -8.675781 15.019531 -8.753906 13.734375 -12.046875 C 13.414062 -12.691406 13.332031 -13.894531 13.332031 -15.5 L 13.332031 -41.683594 C 13.332031 -42.96875 13.332031 -43.773438 13.414062 -44.253906 C 13.976562 -48.351562 19.917969 -48.832031 21.203125 -44.898438 C 21.445312 -44.09375 21.605469 -43.210938 21.605469 -42.085938 L 21.605469 -14.9375 C 21.605469 -13.652344 21.445312 -12.609375 21.125 -11.886719 Z M 21.125 -11.886719 "/></g></g></g><g fill="#1c2933" fill-opacity="1"><g transform="translate(132.925888, 331.904774)"><g/></g></g><g fill="#1c2933" fill-opacity="1"><g transform="translate(157.501285, 331.904774)"><g><path d="M 37.507812 -29.394531 L 34.375 -31.242188 L 34.375 -52.367188 C 34.375 -54.214844 34.535156 -56.222656 32.851562 -56.300781 C 31.644531 -56.464844 30.359375 -56.464844 28.996094 -56.464844 C 25.058594 -56.464844 24.898438 -56.300781 24.898438 -52.367188 C 24.898438 -52.6875 24.898438 -46.90625 24.816406 -34.9375 C 24.816406 -32.289062 24.898438 -32.046875 24.417969 -30.519531 C 24.257812 -29.558594 23.050781 -29.394531 22.648438 -30.359375 C 22.488281 -30.679688 22.328125 -31.082031 22.167969 -31.566406 C 21.363281 -34.457031 18.394531 -44.335938 17.109375 -48.59375 C 16.945312 -49.316406 16.625 -50.359375 16.222656 -51.644531 C 15.742188 -53.089844 15.421875 -54.132812 15.261719 -54.695312 C 14.9375 -55.820312 14.214844 -56.382812 13.253906 -56.382812 L 5.621094 -56.382812 C 3.773438 -56.300781 3.9375 -54.375 3.9375 -51.886719 L 3.9375 -31.242188 L 0.722656 -29.394531 C 0.320312 -29.074219 0.0820312 -28.753906 0.0820312 -28.191406 C 0.0820312 -27.710938 0.320312 -27.386719 0.722656 -27.066406 L 3.9375 -25.21875 L 3.9375 -4.898438 C 3.9375 -2.328125 3.613281 -0.320312 6.105469 0 L 8.914062 0 C 13.414062 0 13.492188 0 13.492188 -4.335938 L 13.492188 -21.765625 C 13.492188 -23.453125 13.574219 -24.578125 13.816406 -25.21875 C 14.214844 -26.183594 15.261719 -26.425781 15.742188 -25.460938 L 16.707031 -22.808594 C 16.546875 -23.210938 18.554688 -17.109375 22.648438 -4.335938 L 23.050781 -3.210938 C 23.292969 -2.652344 23.371094 -2.25 23.453125 -1.925781 C 24.257812 0.5625 27.949219 0 29.878906 0 C 34.136719 0 34.375 -0.160156 34.375 -4.417969 L 34.375 -25.21875 L 37.507812 -27.066406 C 37.988281 -27.386719 38.230469 -27.710938 38.230469 -28.191406 C 38.230469 -28.753906 37.988281 -29.074219 37.507812 -29.394531 Z M 37.507812 -29.394531 "/></g></g></g><g fill="#1c2933" fill-opacity="1"><g transform="translate(204.563072, 331.904774)"><g><path d="M 32.207031 -4.820312 C 32.128906 -5.460938 30.921875 -12.289062 28.753906 -25.378906 L 31.484375 -26.988281 C 31.886719 -27.226562 32.128906 -27.550781 32.128906 -28.109375 C 32.128906 -28.59375 31.886719 -28.996094 31.484375 -29.234375 L 27.710938 -31.402344 C 27.628906 -32.046875 26.425781 -39.113281 24.175781 -52.449219 C 23.933594 -53.730469 23.613281 -55.179688 23.050781 -55.742188 C 22.730469 -55.980469 22.085938 -56.140625 21.285156 -56.222656 L 13.976562 -56.222656 C 11.40625 -56.222656 10.761719 -55.742188 10.28125 -53.089844 C 9.558594 -48.671875 8.351562 -41.445312 6.585938 -31.484375 L 2.730469 -29.234375 C 2.25 -28.996094 2.007812 -28.59375 2.007812 -28.109375 C 2.007812 -27.550781 2.25 -27.226562 2.730469 -26.988281 L 5.542969 -25.300781 C 5.542969 -25.21875 5.460938 -24.980469 5.460938 -24.738281 C 4.980469 -21.925781 3.855469 -15.101562 1.925781 -4.175781 C 1.605469 -1.847656 1.042969 -0.160156 3.292969 -0.0820312 C 4.980469 0 7.066406 0 9.558594 -0.0820312 C 10.683594 -0.0820312 11.324219 -0.640625 11.566406 -1.847656 C 12.207031 -5.542969 12.609375 -7.710938 12.691406 -8.351562 C 13.171875 -12.449219 13.816406 -12.609375 17.992188 -12.609375 C 17.992188 -12.609375 18.230469 -12.609375 18.632812 -12.53125 C 21.445312 -12.449219 21.605469 -8.59375 21.6875 -7.789062 C 21.847656 -7.148438 21.925781 -6.183594 22.085938 -4.980469 C 22.410156 -2.410156 22.488281 -1.203125 23.210938 -0.5625 C 23.53125 -0.242188 24.015625 -0.0820312 24.816406 0 C 25.460938 0 31.164062 0.242188 31.886719 -0.480469 C 32.527344 -1.042969 32.609375 -2.488281 32.207031 -4.820312 Z M 19.597656 -22.488281 C 19.4375 -21.445312 14.9375 -21.363281 14.9375 -22.570312 C 14.9375 -22.808594 14.9375 -23.210938 15.019531 -23.613281 C 15.261719 -26.988281 15.742188 -29.476562 16.304688 -31.003906 C 16.625 -31.566406 17.507812 -31.886719 17.992188 -31.003906 C 18.230469 -30.519531 18.394531 -30.117188 18.472656 -29.796875 C 18.472656 -29.558594 19.355469 -25.300781 19.515625 -23.855469 C 19.597656 -23.132812 19.597656 -22.648438 19.597656 -22.488281 Z M 19.597656 -22.488281 "/></g></g></g><g fill="#1c2933" fill-opacity="1"><g transform="translate(244.477406, 331.904774)"><g><path d="M 46.90625 -29.074219 L 43.691406 -30.921875 L 43.691406 -51.722656 C 43.691406 -54.054688 44.015625 -55.980469 41.84375 -56.0625 C 39.355469 -56.140625 36.304688 -56.140625 32.6875 -56.0625 C 30.28125 -56.0625 30.519531 -54.375 29.878906 -50.761719 C 29.558594 -49.316406 29.394531 -48.191406 29.234375 -47.308594 C 28.671875 -44.738281 28.03125 -41.203125 27.226562 -36.945312 L 25.300781 -26.503906 C 25.300781 -26.183594 25.21875 -26.023438 25.140625 -25.863281 C 24.578125 -24.578125 23.453125 -24.738281 23.132812 -25.703125 C 22.808594 -26.664062 22.570312 -27.386719 22.488281 -27.789062 L 18.3125 -48.914062 L 17.1875 -54.457031 C 16.945312 -55.5 16.304688 -56.0625 15.421875 -56.0625 L 5.621094 -56.0625 C 3.613281 -55.980469 3.855469 -53.972656 3.855469 -51.644531 L 3.855469 -30.921875 L 0.640625 -29.074219 C 0.242188 -28.832031 0 -28.433594 0 -27.949219 C 0 -27.386719 0.242188 -27.066406 0.640625 -26.824219 L 3.855469 -24.980469 L 3.855469 -4.496094 C 3.855469 -1.847656 3.613281 -0.160156 5.542969 0.0820312 C 7.550781 0.242188 9.558594 0.242188 11.484375 0.0820312 C 13.492188 -0.242188 13.332031 -2.167969 13.332031 -4.417969 L 13.332031 -18.070312 C 13.332031 -19.4375 13.492188 -20.402344 13.734375 -20.882812 C 13.816406 -21.203125 14.617188 -21.523438 14.9375 -20.882812 C 15.339844 -20 15.582031 -19.355469 15.742188 -18.875 C 16.222656 -16.785156 16.945312 -13.894531 17.75 -10.199219 C 18.070312 -9.074219 19.277344 -4.015625 19.757812 -1.925781 C 20.078125 -0.402344 20.5625 0 22.167969 0.0820312 C 24.417969 0.242188 26.90625 0.160156 27.550781 -0.402344 C 27.871094 -0.722656 28.191406 -1.367188 28.433594 -2.25 C 28.753906 -3.695312 29.234375 -5.703125 29.796875 -8.433594 L 31.484375 -16.785156 C 31.726562 -17.992188 32.046875 -18.792969 32.367188 -19.195312 C 32.527344 -19.355469 32.6875 -19.4375 32.929688 -19.4375 C 33.171875 -19.4375 33.332031 -19.355469 33.410156 -19.117188 C 33.894531 -17.910156 34.214844 -16.386719 34.214844 -14.457031 L 34.214844 -4.015625 C 34.214844 -2.007812 34.054688 -0.160156 35.660156 0 C 37.828125 0.242188 39.917969 0.242188 42.007812 0 C 43.851562 -0.242188 43.691406 -2.328125 43.691406 -4.578125 L 43.691406 -24.980469 L 46.90625 -26.824219 C 47.308594 -27.066406 47.546875 -27.386719 47.546875 -27.949219 C 47.546875 -28.433594 47.308594 -28.832031 46.90625 -29.074219 Z M 46.90625 -29.074219 "/></g></g></g><g fill="#1c2933" fill-opacity="1"><g transform="translate(300.774689, 331.904774)"><g><path d="M 29.074219 -7.789062 C 28.832031 -9.636719 27.226562 -9.398438 24.816406 -9.476562 L 16.945312 -9.476562 C 14.296875 -9.558594 13.574219 -10.359375 13.414062 -12.929688 C 13.332031 -15.421875 13.332031 -17.589844 13.492188 -19.515625 C 13.652344 -22.972656 14.457031 -23.371094 17.507812 -23.371094 C 19.839844 -23.371094 21.6875 -23.371094 22.890625 -23.453125 C 24.015625 -23.53125 24.65625 -24.09375 24.65625 -25.21875 C 24.816406 -26.90625 24.816406 -28.59375 24.738281 -30.28125 C 24.65625 -32.207031 24.175781 -32.769531 22.246094 -32.769531 C 21.6875 -32.851562 20.722656 -32.851562 19.4375 -32.851562 C 16.945312 -32.851562 15.179688 -32.769531 14.214844 -33.652344 C 13.816406 -34.136719 13.492188 -34.9375 13.492188 -35.980469 C 13.332031 -38.550781 13.332031 -41.203125 13.414062 -43.933594 C 13.574219 -46.421875 14.296875 -47.226562 16.945312 -47.308594 L 24.898438 -47.308594 C 27.226562 -47.308594 28.914062 -47.144531 29.074219 -49.074219 C 29.234375 -50.921875 29.316406 -54.9375 28.59375 -55.660156 C 28.191406 -55.980469 27.148438 -56.222656 25.300781 -56.222656 L 7.953125 -56.222656 C 4.015625 -56.222656 3.9375 -56.0625 3.9375 -52.046875 L 3.9375 -31.082031 L 0.722656 -29.234375 C 0.320312 -28.996094 0.0820312 -28.59375 0.0820312 -28.109375 C 0.0820312 -27.550781 0.320312 -27.226562 0.722656 -26.988281 L 3.9375 -25.140625 L 3.9375 -5.300781 C 3.9375 -2.328125 3.855469 -1.285156 4.578125 -0.640625 C 5.300781 0 6.667969 0 7.789062 0 L 25.21875 0 C 26.90625 0 28.832031 0.160156 28.996094 -1.765625 C 29.234375 -3.695312 29.234375 -5.703125 29.074219 -7.789062 Z M 29.074219 -7.789062 "/></g></g></g><g clip-path="url(#cc741bb6ef)"><path fill="#1c2933" d="M 306.566406 157.195312 L 80.371094 157.195312 L 80.371094 147.222656 L 306.566406 147.222656 L 306.566406 157.195312 " fill-opacity="1" fill-rule="nonzero"/></g><g clip-path="url(#2aac5b9ef0)"><path fill="#1c2933" d="M 204.1875 24.78125 C 204.1875 30.445312 199.601562 35.039062 193.945312 35.039062 C 188.292969 35.039062 183.714844 30.445312 183.714844 24.78125 C 183.714844 19.117188 188.292969 14.523438 193.945312 14.523438 C 199.601562 14.523438 204.1875 19.117188 204.1875 24.78125 " fill-opacity="1" fill-rule="nonzero"/></g><path fill="#1c2933" d="M 127.378906 125.894531 L 109.128906 125.894531 C 109.128906 47.355469 171.761719 39.878906 193.953125 39.878906 C 134.84375 39.878906 127.378906 125.894531 127.378906 125.894531 Z M 193.46875 34.753906 C 83.132812 34.753906 99.726562 137.804688 99.726562 137.804688 L 288.316406 137.804688 C 288.316406 137.804688 303.800781 34.753906 193.46875 34.753906 " fill-opacity="1" fill-rule="nonzero"/><g clip-path="url(#e85668244a)"><path fill="#1c2933" d="M 74.699219 178.667969 L 74.699219 247.621094 L 114.523438 238.359375 L 114.523438 178.667969 Z M 68.066406 255.988281 L 68.066406 172.019531 L 121.15625 172.019531 L 121.15625 243.640625 L 68.066406 255.988281 " fill-opacity="1" fill-rule="nonzero"/></g><path fill="#1c2933" d="M 126.964844 175.34375 C 126.964844 175.34375 177.15625 152.210938 229.417969 175.34375 L 226.421875 180.082031 C 223.378906 184.894531 218.089844 187.8125 212.40625 187.8125 L 180.890625 187.8125 C 180.890625 187.8125 164.972656 193.628906 183.714844 193.628906 C 202.457031 193.628906 234.808594 193.628906 234.808594 193.628906 C 234.808594 193.628906 272.972656 166.308594 292.054688 179.34375 L 231.90625 222.71875 L 126.964844 231.441406 L 126.964844 175.34375 " fill-opacity="1" fill-rule="nonzero"/></svg>